<svg xmlns="http://www.w3.org/2000/svg" viewBox="0 0 64 64">
<!-- Clipboard base (dark) -->
<rect x="8" y="10" width="48" height="52" rx="4" fill="#182A3E"/>
<!-- Clip at top -->
<rect x="22" y="6" width="20" height="10" rx="4" fill="#3A5C7A"/>
<rect x="26" y="8" width="12" height="6" rx="2" fill="#28445E"/>
<!-- Issue rows inside -->
<!-- Row 1: Red issue (open) -->
<rect x="14" y="22" width="36" height="8" rx="2" fill="#28445E"/>
<circle cx="20" cy="26" r="3.5" fill="#D85050"/>
<rect x="26" y="24" width="20" height="2.5" rx="1.2" fill="#5A7290"/>
<rect x="26" y="28" width="14" height="1.5" rx="0.8" fill="#3A5C7A"/>
<!-- Row 2: Orange issue (in progress) -->
<rect x="14" y="33" width="36" height="8" rx="2" fill="#28445E"/>
<circle cx="20" cy="37" r="3.5" fill="#D07818"/>
<rect x="26" y="35" width="18" height="2.5" rx="1.2" fill="#5A7290"/>
<rect x="26" y="39" width="12" height="1.5" rx="0.8" fill="#3A5C7A"/>
<!-- Row 3: Green issue (resolved) -->
<rect x="14" y="44" width="36" height="8" rx="2" fill="#28445E"/>
<circle cx="20" cy="48" r="3.5" fill="#3A9860"/>
<rect x="26" y="46" width="22" height="2.5" rx="1.2" fill="#5A7290"/>
<rect x="26" y="50" width="10" height="1.5" rx="0.8" fill="#3A5C7A"/>
<!-- BCF label stripe at top of doc -->
<rect x="8" y="10" width="48" height="10" rx="4" fill="#D07818"/>
<rect x="8" y="16" width="48" height="4" fill="#D07818"/>
<rect x="14" y="13" width="12" height="3" rx="1.5" fill="white" opacity="0.8"/>
</svg>
