<svg xmlns="http://www.w3.org/2000/svg" viewBox="0 0 64 64">
<!-- Server rack units (3 rows) -->
<rect x="4" y="6" width="56" height="14" rx="4" fill="#3A5268"/>
<rect x="8" y="9" width="32" height="8" rx="2" fill="#4A6278"/>
<circle cx="50" cy="13" r="4" fill="#4AAE88"/>
<circle cx="42" cy="13" r="3" fill="#566A7A"/>
<rect x="4" y="24" width="56" height="14" rx="4" fill="#4A6278"/>
<rect x="8" y="27" width="32" height="8" rx="2" fill="#3A5268"/>
<circle cx="50" cy="31" r="4" fill="#4AAE88"/>
<circle cx="42" cy="31" r="3" fill="#566A7A"/>
<rect x="4" y="42" width="56" height="14" rx="4" fill="#566A7A"/>
<rect x="8" y="45" width="32" height="8" rx="2" fill="#4A6278"/>
<circle cx="50" cy="49" r="4" fill="#C86060"/>
<circle cx="42" cy="49" r="3" fill="#3A5268"/>
<!-- Orange connection indicator on bottom rack (active/problem) -->
<rect x="4" y="42" width="5" height="14" rx="2" fill="#C87A30"/>
<!-- Rack rails -->
<rect x="2" y="4" width="4" height="56" rx="2" fill="#2A3A4C"/>
<rect x="58" y="4" width="4" height="56" rx="2" fill="#2A3A4C"/>
</svg>
